<svg xmlns="http://www.w3.org/2000/svg" version="1.1" xmlns:xlink="http://www.w3.org/1999/xlink" xmlns:svgjs="http://svgjs.dev/svgjs" width="1000" height="1000" viewBox="0 0 1000 1000"><g transform="matrix(1,0,0,1,-0.14221556886212738,-0.14221556886229791)"><svg viewBox="0 0 334 334" data-background-color="#ffffff" preserveAspectRatio="xMidYMid meet" height="1000" width="1000" xmlns="http://www.w3.org/2000/svg" xmlns:xlink="http://www.w3.org/1999/xlink"><g id="tight-bounds" transform="matrix(1,0,0,1,0.04749999999998522,0.04750000000001364)"><svg viewBox="0 0 333.90454557049503 333.90454557049503" height="333.90454557049503" width="333.90454557049503"><g><svg></svg></g><g><svg viewBox="0 0 333.90454557049503 333.90454557049503" height="333.90454557049503" width="333.90454557049503"><g><path d="M0 166.952c0-92.205 74.747-166.952 166.952-166.952 92.205 0 166.952 74.747 166.953 166.952 0 92.205-74.747 166.952-166.953 166.953-92.205 0-166.952-74.747-166.952-166.953zM166.952 330.41c90.275 0 163.458-73.183 163.458-163.458 0-90.275-73.183-163.458-163.458-163.458-90.275 0-163.458 73.183-163.458 163.458 0 90.275 73.183 163.458 163.458 163.458z" data-fill-palette-color="tertiary" fill="#14102e" stroke="transparent"></path><ellipse rx="160.27418187383762" ry="160.27418187383762" cx="166.95227278524752" cy="166.95227278524752" fill="#14102e" stroke="transparent" stroke-width="0" fill-opacity="1" data-fill-palette-color="tertiary"></ellipse></g><g transform="matrix(1,0,0,1,78.56938480350571,71.17305217166896)"><svg viewBox="0 0 176.7657759634836 191.55844122715712" height="191.55844122715712" width="176.7657759634836"><g><svg viewBox="0 0 176.7657759634836 191.55844122715712" height="191.55844122715712" width="176.7657759634836"><g><svg viewBox="0 0 176.7657759634836 191.55844122715712" height="191.55844122715712" width="176.7657759634836"><g id="textblocktransform"><svg viewBox="0 0 176.7657759634836 191.55844122715712" height="191.55844122715712" width="176.7657759634836" id="textblock"><g><svg viewBox="0 0 176.7657759634836 191.55844122715712" height="191.55844122715712" width="176.7657759634836"><rect width="176.7657759634836" height="191.55844122715712" x="0" y="0" opacity="1" fill="#14102e" data-fill-palette-color="tertiary"></rect><g transform="matrix(1,0,0,1,18.293831137193504,18.293831137193504)"><svg width="140.1781136890966" viewBox="5.050000190734863 -33 29.85000228881836 33" height="154.9707789527701" data-palette-color="#ffdc00"><path d="M32.9-33L34.9-33 34.9 0 33.55 0 33.55-27.45 33.65-31.4 33.65-31.4 20.7 0 19.25 0 6.3-31.4 6.25-31.4 6.4-27.45 6.4 0 5.05 0 5.05-33 7.05-33 19-4.4 19.95-1.65 20-1.65 20.95-4.35 32.9-33Z" opacity="1" transform="matrix(1,0,0,1,0,0)" fill="#ffdc00" class="undefined-text-0" data-fill-palette-color="quaternary" id="text-0"></path></svg></g></svg></g></svg></g></svg></g><g></g></svg></g></svg></g></svg></g><defs></defs></svg><rect width="333.90454557049503" height="333.90454557049503" fill="none" stroke="none" visibility="hidden"></rect></g></svg></g></svg>